<svg xmlns="http://www.w3.org/2000/svg" viewBox="40 -20 460 500" fill="none">
  <g transform="translate(0,512) scale(0.1,-0.1)">
    <path fill="#1A4A54" d="M3840 3689 c-134 -21 -312 -97 -425 -182 -80 -60 -211 -190 -363
-360 -18 -21 -36 -37 -41 -37 -5 0 -16 11 -25 24 -28 44 -359 310 -377 304 -5
-2 5 -20 22 -41 17 -21 37 -36 44 -33 7 2 32 -17 56 -42 l44 -47 -47 45 c-27
24 -48 41 -48 37 0 -4 24 -42 54 -84 131 -190 195 -392 196 -618 0 -242 -61
-441 -188 -615 -31 -41 -143 -164 -250 -272 l-195 -198 148 -142 c82 -79 227
-221 324 -316 l176 -173 130 5 c72 2 141 6 155 9 40 8 124 20 138 20 6 0 12 3
12 7 0 4 6 7 13 8 6 1 23 3 37 5 128 16 565 225 543 260 -3 6 -2 8 3 5 14 -9
56 10 49 22 -3 6 1 7 10 4 10 -4 15 -2 13 7 -2 8 4 13 14 13 10 -1 15 2 12 7
-3 5 0 10 5 10 6 1 15 2 20 3 5 0 13 5 18 10 5 5 2 6 -7 1 -8 -4 3 7 25 25
108 89 246 252 337 397 285 453 374 1040 218 1440 -93 241 -270 408 -500 473
-88 25 -254 34 -350 19z m542 -185 c86 -33 107 -45 141 -84 51 -59 124 -215
154 -327 25 -90 27 -114 27 -303 1 -179 -2 -219 -23 -315 -147 -689 -613
-1224 -1101 -1263 -228 -18 -424 47 -550 184 l-45 49 42 -39 43 -40 30 22 c29
22 32 22 82 7 198 -58 479 53 649 257 191 230 248 518 143 728 -61 122 -159
184 -309 197 -69 5 -73 7 -78 32 -3 14 -3 28 0 31 2 3 48 5 101 4 126 -1 195
-26 267 -98 188 -188 175 -575 -30 -885 -61 -93 -46 -88 27 9 65 85 143 245
169 345 16 58 21 111 22 195 0 99 -3 126 -27 194 -31 91 -65 144 -131 205 -89
82 -229 123 -355 103 -36 -5 -68 -8 -72 -5 -15 8 -31 91 -30 160 0 83 36 200
83 271 16 24 29 47 29 53 0 16 206 219 223 219 8 0 17 4 19 8 11 27 165 89
253 102 74 10 198 3 247 -16z M4149 3370 c-122 -22 -260 -187 -305 -360 -53
-207 121 -346 314 -249 110 54 190 170 214 307 31 183 -77 330 -223 302z m114
-56 c120 -89 92 -350 -51 -475 -52 -46 -109 -69 -173 -69 -70 0 -115 27 -147
90 -20 39 -23 57 -20 130 4 104 36 175 112 252 91 93 209 124 279 72z M4093
3275 c-54 -23 -124 -96 -154 -160 -68 -143 -11 -285 115 -285 61 0 104 19 151
65 103 104 123 279 40 362 -27 27 -40 33 -76 33 -24 -1 -58 -7 -76 -15z M1785
3092 c-85 -24 -135 -54 -197 -114 -125 -124 -173 -307 -123 -473 26 -89 113
-211 224 -317 53 -51 95 -96 94 -100 -2 -4 2 -8 7 -8 18 0 10 16 -30 61 -125
137 -191 286 -195 438 -3 112 23 197 80 267 77 94 200 152 308 147 15 -1 35
-2 45 -3 9 0 44 -8 77 -18 119 -33 216 -169 228 -320 3 -35 1 -60 -4 -57 -4 3
-7 -12 -4 -35 2 -22 0 -40 -5 -40 -4 0 -6 -9 -3 -20 3 -11 0 -20 -6 -20 -5 0
-8 -6 -5 -14 3 -8 -15 -53 -39 -100 -24 -47 -40 -86 -36 -86 12 0 78 92 79
108 0 6 4 12 9 12 5 0 14 15 21 33 7 17 19 47 27 66 9 19 18 72 21 117 5 88
-11 155 -60 249 -23 43 -28 49 -83 108 -107 112 -285 162 -430 119z M821 2394
c-1 -34 6 -101 14 -150 49 -283 196 -552 424 -772 l75 -74 39 41 38 41 -58 49
c-51 43 -117 111 -198 206 -15 17 -57 76 -95 133 -108 160 -184 333 -220 502
l-19 85 0 -61z M940 2237 c0 -3 9 -25 20 -51 51 -114 198 -340 275 -420 11
-12 20 -23 20 -26 1 -6 171 -169 197 -189 15 -12 20 -10 37 10 l19 23 -157
156 c-86 85 -173 174 -193 197 -67 76 -198 262 -198 282 0 5 -4 13 -10 16 -5
3 -10 4 -10 2z M1851 1136 c-23 -23 -38 -46 -34 -51 5 -4 3 -5 -3 -2 -6 4 -20
-3 -30 -16 -16 -19 -16 -20 -1 -8 15 12 17 12 12 -1 -5 -11 20 -31 87 -71 51
-30 112 -63 135 -72 25 -10 40 -22 36 -28 -3 -6 -1 -7 6 -3 15 10 53 -3 46
-15 -4 -5 -4 -9 -1 -9 2 0 13 -3 23 -6 15 -5 15 -4 3 5 -23 16 1 12 30 -5 23
-14 23 -14 3 -9 -39 11 -25 -9 29 -40 58 -34 60 -35 143 -90 33 -21 71 -48 85
-59 14 -11 -11 17 -55 63 -49 50 -72 81 -59 77 170 -50 363 -79 398 -59 14 7
-2 12 -64 17 -71 6 -301 59 -354 81 -15 7 -18 5 -12 -6 6 -11 4 -10 -6 1 -7 8
-35 33 -62 54 -27 22 -88 80 -135 129 -47 49 -107 107 -132 128 l-46 38 -42
-43z"/>
    <path fill="#C4956A" d="M2893 4796 c-161 -51 -334 -260 -388 -471 -24 -90 -30 -223 -15 -297
34 -162 111 -225 268 -216 106 6 175 41 267 134 84 85 127 154 168 271 28 80
31 100 31 218 1 115 -2 137 -23 189 -31 78 -98 150 -158 170 -55 19 -93 19
-150 2z M1765 3699 c-237 -34 -467 -154 -627 -328 -196 -212 -282 -437 -277
-728 4 -314 154 -578 532 -939 85 -81 123 -111 129 -102 4 7 8 9 8 3 0 -5
-142 -152 -315 -325 -173 -173 -315 -320 -315 -326 0 -11 368 -374 379 -374 4
0 143 137 310 304 l305 305 60 -56 60 -55 29 33 29 34 -25 -36 -25 -35 109
-111 108 -110 103 -31 c139 -42 244 -62 324 -62 l67 0 96 95 96 95 -150 147
c-82 80 -213 209 -291 285 -77 77 -148 140 -156 142 -9 1 -23 7 -30 14 -12 10
-48 -19 -204 -170 l-189 -181 187 188 187 189 23 -20 23 -19 -19 23 -20 22
211 213 c115 116 229 241 253 276 89 133 145 284 169 456 15 102 14 161 -4
280 -41 278 -186 535 -389 690 -120 91 -288 174 -411 202 -100 22 -243 27
-350 12z m250 -601 c149 -37 288 -182 331 -343 20 -74 17 -182 -6 -259 -36
-116 -104 -199 -379 -470 l-60 -60 -147 145 c-160 158 -217 226 -259 309 -95
187 -65 406 75 550 123 127 277 171 445 128z M4080 3504 c-30 -8 -93 -33 -140
-56 -70 -34 -102 -58 -181 -137 -154 -154 -222 -291 -223 -451 0 -90 18 -165
38 -157 40 16 147 17 212 4 94 -20 145 -47 215 -114 100 -95 144 -218 143
-393 -2 -204 -75 -389 -227 -577 -61 -76 -75 -76 -19 -1 136 180 212 450 184
649 -13 87 -52 186 -98 247 -63 82 -201 138 -320 130 -35 -2 -66 -7 -70 -10
-3 -4 -4 -18 0 -31 5 -22 12 -25 73 -30 183 -15 300 -116 348 -302 65 -251
-91 -597 -350 -775 -149 -103 -346 -146 -480 -105 -51 15 -67 11 -98 -23 -17
-19 -16 -20 35 -55 29 -20 91 -51 138 -69 83 -32 90 -33 240 -33 135 0 165 3
230 23 318 100 601 372 789 762 119 247 180 483 188 736 8 229 -22 386 -109
561 -53 107 -86 145 -150 175 -103 49 -255 62 -368 32z m202 -159 c43 -29 86
-110 94 -181 14 -113 -36 -246 -125 -334 -67 -67 -117 -92 -192 -98 -125 -9
-208 58 -225 181 -17 121 110 352 233 423 83 49 148 52 215 9z M4085 3317
c-65 -31 -134 -102 -176 -180 -28 -53 -33 -74 -37 -147 -3 -74 0 -91 20 -129
32 -62 66 -84 138 -89 50 -4 69 0 114 22 104 51 182 173 193 303 7 89 -9 145
-56 196 -34 36 -44 41 -92 44 -42 3 -65 -1 -104 -20z m160 -60 c83 -83 63
-258 -40 -362 -47 -47 -90 -65 -154 -65 -85 0 -141 65 -141 163 0 78 25 140
83 203 62 68 107 93 171 94 41 0 53 -5 81 -33z M2415 680 l116 -112 77 73 c74
71 76 74 52 80 -14 4 -43 7 -65 8 -34 1 -200 36 -273 57 -14 4 24 -38 93 -106z"/>
  </g>
</svg>
