<svg xmlns="http://www.w3.org/2000/svg" viewBox="0 0 48 56" fill="none" role="img" aria-labelledby="logoMarkTitle">
  <title id="logoMarkTitle">???? ???? ????? ??????</title>
  <circle cx="24" cy="11.5" r="7.5" fill="#102E34"/>
  <path d="M24.5 19.2C29.8 19.8 39.2 24.8 40.8 35.8C42 43.5 36.8 50.8 30.2 49.5C25.2 44.8 22.8 32.5 24.5 19.2Z" fill="#183F46"/>
  <path d="M23.2 20C17.8 22.2 10.5 29.5 12.8 40.5C14.5 47.5 20.2 49.8 24.2 45.2C26.5 35.5 25.8 26.5 23.2 20Z" fill="#5F7F76"/>
  <path d="M21.2 29.5C15.5 33.5 10.2 41.2 12.5 49.5C14.5 54.2 18.8 53.5 21 48.2C22.2 40.5 21.5 34.2 21.2 29.5Z" fill="#9BB3AB"/>
</svg>
